<?xml version="1.0" encoding="UTF-8" standalone="no"?>
<!DOCTYPE svg PUBLIC "-//W3C//DTD SVG 1.1//EN"
 "http://www.w3.org/Graphics/SVG/1.1/DTD/svg11.dtd">
<!-- Generated by graphviz version 2.40.1 (20161225.0304)
 -->
<!-- Title: %0 Pages: 1 -->
<svg width="422pt" height="260pt"
 viewBox="0.00 0.00 422.00 260.00" xmlns="http://www.w3.org/2000/svg" xmlns:xlink="http://www.w3.org/1999/xlink">
<g id="graph0" class="graph" transform="scale(1 1) rotate(0) translate(4 256)">
<title>%0</title>
<polygon fill="#ffffff" stroke="transparent" points="-4,4 -4,-256 418,-256 418,4 -4,4"/>
<!-- C1 -->
<g id="node1" class="node">
<title>C1</title>
<polygon fill="none" stroke="#ffffff" points="54,-108 0,-108 0,-72 54,-72 54,-108"/>
</g>
<!-- C2 -->
<g id="node2" class="node">
<title>C2</title>
<polygon fill="#d3d3d3" stroke="#000000" points="144,-108 90,-108 90,-72 144,-72 144,-108"/>
</g>
<!-- C1&#45;&gt;C2 -->
<g id="edge10" class="edge">
<title>C1&#45;&gt;C2</title>
<path fill="none" stroke="#000000" d="M54.0703,-90C62.6689,-90 71.2674,-90 79.866,-90"/>
<polygon fill="#000000" stroke="#000000" points="79.9599,-93.5001 89.9599,-90 79.9599,-86.5001 79.9599,-93.5001"/>
</g>
<!-- C3 -->
<g id="node3" class="node">
<title>C3</title>
<polygon fill="#d3d3d3" stroke="#000000" points="234,-108 180,-108 180,-72 234,-72 234,-108"/>
</g>
<!-- C2&#45;&gt;C3 -->
<g id="edge11" class="edge">
<title>C2&#45;&gt;C3</title>
<path fill="none" stroke="#000000" d="M144.0703,-90C152.6689,-90 161.2674,-90 169.866,-90"/>
<polygon fill="#000000" stroke="#000000" points="169.9599,-93.5001 179.9599,-90 169.9599,-86.5001 169.9599,-93.5001"/>
</g>
<!-- D2 -->
<g id="node7" class="node">
<title>D2</title>
<polygon fill="#d3d3d3" stroke="#000000" points="144,-180 90,-180 90,-144 144,-144 144,-180"/>
</g>
<!-- C2&#45;&gt;D2 -->
<g id="edge2" class="edge">
<title>C2&#45;&gt;D2</title>
<path fill="none" stroke="#000000" d="M117,-108.1686C117,-115.869 117,-125.0257 117,-133.5834"/>
<polygon fill="#000000" stroke="#000000" points="113.5001,-133.5867 117,-143.5867 120.5001,-133.5868 113.5001,-133.5867"/>
</g>
<!-- C4 -->
<g id="node4" class="node">
<title>C4</title>
<polygon fill="#d3d3d3" stroke="#000000" points="324,-108 270,-108 270,-72 324,-72 324,-108"/>
</g>
<!-- C3&#45;&gt;C4 -->
<g id="edge12" class="edge">
<title>C3&#45;&gt;C4</title>
<path fill="none" stroke="#000000" d="M234.0703,-90C242.6689,-90 251.2674,-90 259.866,-90"/>
<polygon fill="#000000" stroke="#000000" points="259.9599,-93.5001 269.9599,-90 259.9599,-86.5001 259.9599,-93.5001"/>
</g>
<!-- D3 -->
<g id="node8" class="node">
<title>D3</title>
<polygon fill="#d3d3d3" stroke="#000000" points="234,-180 180,-180 180,-144 234,-144 234,-180"/>
</g>
<!-- C3&#45;&gt;D3 -->
<g id="edge5" class="edge">
<title>C3&#45;&gt;D3</title>
<path fill="none" stroke="#000000" d="M207,-108.1686C207,-115.869 207,-125.0257 207,-133.5834"/>
<polygon fill="#000000" stroke="#000000" points="203.5001,-133.5867 207,-143.5867 210.5001,-133.5868 203.5001,-133.5867"/>
</g>
<!-- C5 -->
<g id="node5" class="node">
<title>C5</title>
<polygon fill="none" stroke="#ffffff" points="414,-108 360,-108 360,-72 414,-72 414,-108"/>
</g>
<!-- C4&#45;&gt;C5 -->
<g id="edge13" class="edge">
<title>C4&#45;&gt;C5</title>
<path fill="none" stroke="#000000" d="M324.0703,-90C332.6689,-90 341.2674,-90 349.866,-90"/>
<polygon fill="#000000" stroke="#000000" points="349.9599,-93.5001 359.9599,-90 349.9599,-86.5001 349.9599,-93.5001"/>
</g>
<!-- D4 -->
<g id="node9" class="node">
<title>D4</title>
<polygon fill="#d3d3d3" stroke="#000000" points="324,-180 270,-180 270,-144 324,-144 324,-180"/>
</g>
<!-- C4&#45;&gt;D4 -->
<g id="edge8" class="edge">
<title>C4&#45;&gt;D4</title>
<path fill="none" stroke="#000000" d="M297,-108.1686C297,-115.869 297,-125.0257 297,-133.5834"/>
<polygon fill="#000000" stroke="#000000" points="293.5001,-133.5867 297,-143.5867 300.5001,-133.5868 293.5001,-133.5867"/>
</g>
<!-- D1 -->
<g id="node6" class="node">
<title>D1</title>
<polygon fill="none" stroke="#ffffff" points="54,-180 0,-180 0,-144 54,-144 54,-180"/>
</g>
<!-- D1&#45;&gt;D2 -->
<g id="edge14" class="edge">
<title>D1&#45;&gt;D2</title>
<path fill="none" stroke="#000000" d="M54.0703,-162C62.6689,-162 71.2674,-162 79.866,-162"/>
<polygon fill="#000000" stroke="#000000" points="79.9599,-165.5001 89.9599,-162 79.9599,-158.5001 79.9599,-165.5001"/>
</g>
<!-- D2&#45;&gt;D3 -->
<g id="edge15" class="edge">
<title>D2&#45;&gt;D3</title>
<path fill="none" stroke="#000000" d="M144.0703,-162C152.6689,-162 161.2674,-162 169.866,-162"/>
<polygon fill="#000000" stroke="#000000" points="169.9599,-165.5001 179.9599,-162 169.9599,-158.5001 169.9599,-165.5001"/>
</g>
<!-- E2 -->
<g id="node14" class="node">
<title>E2</title>
<polygon fill="none" stroke="#ffffff" points="144,-252 90,-252 90,-216 144,-216 144,-252"/>
<text text-anchor="start" x="102.2244" y="-230.8" font-family="Times,serif" font-size="14.00" fill="#000000">y</text>
<text text-anchor="start" x="109.2244" y="-230.8" font-family="Times,serif" baseline-shift="sub" font-size="14.00" fill="#000000">t &#45; 1</text>
</g>
<!-- D2&#45;&gt;E2 -->
<g id="edge3" class="edge">
<title>D2&#45;&gt;E2</title>
<path fill="none" stroke="#000000" d="M117,-180.1686C117,-187.869 117,-197.0257 117,-205.5834"/>
<polygon fill="#000000" stroke="#000000" points="113.5001,-205.5867 117,-215.5867 120.5001,-205.5868 113.5001,-205.5867"/>
</g>
<!-- D3&#45;&gt;D4 -->
<g id="edge16" class="edge">
<title>D3&#45;&gt;D4</title>
<path fill="none" stroke="#000000" d="M234.0703,-162C242.6689,-162 251.2674,-162 259.866,-162"/>
<polygon fill="#000000" stroke="#000000" points="259.9599,-165.5001 269.9599,-162 259.9599,-158.5001 259.9599,-165.5001"/>
</g>
<!-- E3 -->
<g id="node15" class="node">
<title>E3</title>
<polygon fill="none" stroke="#ffffff" points="234,-252 180,-252 180,-216 234,-216 234,-252"/>
<text text-anchor="start" x="199.8047" y="-230.8" font-family="Times,serif" font-size="14.00" fill="#000000">y</text>
<text text-anchor="start" x="206.8047" y="-230.8" font-family="Times,serif" baseline-shift="sub" font-size="14.00" fill="#000000">t </text>
</g>
<!-- D3&#45;&gt;E3 -->
<g id="edge6" class="edge">
<title>D3&#45;&gt;E3</title>
<path fill="none" stroke="#000000" d="M207,-180.1686C207,-187.869 207,-197.0257 207,-205.5834"/>
<polygon fill="#000000" stroke="#000000" points="203.5001,-205.5867 207,-215.5867 210.5001,-205.5868 203.5001,-205.5867"/>
</g>
<!-- D5 -->
<g id="node10" class="node">
<title>D5</title>
<polygon fill="none" stroke="#ffffff" points="414,-180 360,-180 360,-144 414,-144 414,-180"/>
</g>
<!-- D4&#45;&gt;D5 -->
<g id="edge17" class="edge">
<title>D4&#45;&gt;D5</title>
<path fill="none" stroke="#000000" d="M324.0703,-162C332.6689,-162 341.2674,-162 349.866,-162"/>
<polygon fill="#000000" stroke="#000000" points="349.9599,-165.5001 359.9599,-162 349.9599,-158.5001 349.9599,-165.5001"/>
</g>
<!-- E4 -->
<g id="node16" class="node">
<title>E4</title>
<polygon fill="none" stroke="#ffffff" points="324,-252 270,-252 270,-216 324,-216 324,-252"/>
<text text-anchor="start" x="280.6074" y="-230.8" font-family="Times,serif" font-size="14.00" fill="#000000">y</text>
<text text-anchor="start" x="287.6074" y="-230.8" font-family="Times,serif" baseline-shift="sub" font-size="14.00" fill="#000000">t + 1</text>
</g>
<!-- D4&#45;&gt;E4 -->
<g id="edge9" class="edge">
<title>D4&#45;&gt;E4</title>
<path fill="none" stroke="#000000" d="M297,-180.1686C297,-187.869 297,-197.0257 297,-205.5834"/>
<polygon fill="#000000" stroke="#000000" points="293.5001,-205.5867 297,-215.5867 300.5001,-205.5868 293.5001,-205.5867"/>
</g>
<!-- B2 -->
<g id="node11" class="node">
<title>B2</title>
<polygon fill="none" stroke="#ffffff" points="144,-36 90,-36 90,0 144,0 144,-36"/>
<text text-anchor="start" x="102.2244" y="-14.8" font-family="Times,serif" font-size="14.00" fill="#000000">x</text>
<text text-anchor="start" x="109.2244" y="-14.8" font-family="Times,serif" baseline-shift="sub" font-size="14.00" fill="#000000">t &#45; 1</text>
</g>
<!-- B2&#45;&gt;C2 -->
<g id="edge1" class="edge">
<title>B2&#45;&gt;C2</title>
<path fill="none" stroke="#000000" d="M117,-36.1686C117,-43.869 117,-53.0257 117,-61.5834"/>
<polygon fill="#000000" stroke="#000000" points="113.5001,-61.5867 117,-71.5867 120.5001,-61.5868 113.5001,-61.5867"/>
</g>
<!-- B3 -->
<g id="node12" class="node">
<title>B3</title>
<polygon fill="none" stroke="#ffffff" points="234,-36 180,-36 180,0 234,0 234,-36"/>
<text text-anchor="start" x="199.8047" y="-14.8" font-family="Times,serif" font-size="14.00" fill="#000000">x</text>
<text text-anchor="start" x="206.8047" y="-14.8" font-family="Times,serif" baseline-shift="sub" font-size="14.00" fill="#000000">t </text>
</g>
<!-- B3&#45;&gt;C3 -->
<g id="edge4" class="edge">
<title>B3&#45;&gt;C3</title>
<path fill="none" stroke="#000000" d="M207,-36.1686C207,-43.869 207,-53.0257 207,-61.5834"/>
<polygon fill="#000000" stroke="#000000" points="203.5001,-61.5867 207,-71.5867 210.5001,-61.5868 203.5001,-61.5867"/>
</g>
<!-- B4 -->
<g id="node13" class="node">
<title>B4</title>
<polygon fill="none" stroke="#ffffff" points="324,-36 270,-36 270,0 324,0 324,-36"/>
<text text-anchor="start" x="280.6074" y="-14.8" font-family="Times,serif" font-size="14.00" fill="#000000">x</text>
<text text-anchor="start" x="287.6074" y="-14.8" font-family="Times,serif" baseline-shift="sub" font-size="14.00" fill="#000000">t + 1</text>
</g>
<!-- B4&#45;&gt;C4 -->
<g id="edge7" class="edge">
<title>B4&#45;&gt;C4</title>
<path fill="none" stroke="#000000" d="M297,-36.1686C297,-43.869 297,-53.0257 297,-61.5834"/>
<polygon fill="#000000" stroke="#000000" points="293.5001,-61.5867 297,-71.5867 300.5001,-61.5868 293.5001,-61.5867"/>
</g>
</g>
</svg>
